<mxfile host="65bd71144e">
    <diagram id="ai_v6qNDMbRoHD2WxIHC" name="Homepage">
        <mxGraphModel dx="1314" dy="1530" grid="1" gridSize="10" guides="1" tooltips="1" connect="1" arrows="1" fold="1" page="1" pageScale="1" pageWidth="827" pageHeight="1169" math="0" shadow="0">
            <root>
                <mxCell id="0"/>
                <mxCell id="1" parent="0"/>
                <mxCell id="2" value="Logo" style="rounded=0;whiteSpace=wrap;html=1;gradientColor=#ffffff;fillColor=none;shadow=0;glass=0;strokeColor=default;" parent="1" vertex="1">
                    <mxGeometry x="40" y="60" width="120" height="60" as="geometry"/>
                </mxCell>
                <mxCell id="4" value="navbar (country, brand, catergory, contact)" style="rounded=0;whiteSpace=wrap;html=1;" parent="1" vertex="1">
                    <mxGeometry x="50" y="240" width="750" height="60" as="geometry"/>
                </mxCell>
                <mxCell id="5" value="" style="rounded=0;whiteSpace=wrap;html=1;" parent="1" vertex="1">
                    <mxGeometry x="50" y="320" width="740" height="210" as="geometry"/>
                </mxCell>
                <mxCell id="7" value="Image" style="rounded=0;whiteSpace=wrap;html=1;" parent="1" vertex="1">
                    <mxGeometry x="70" y="392.5" width="90" height="85" as="geometry"/>
                </mxCell>
                <mxCell id="9" value="Image" style="rounded=0;whiteSpace=wrap;html=1;" parent="1" vertex="1">
                    <mxGeometry x="230" y="392.5" width="90" height="85" as="geometry"/>
                </mxCell>
                <mxCell id="10" value="Image" style="rounded=0;whiteSpace=wrap;html=1;" parent="1" vertex="1">
                    <mxGeometry x="369" y="392.5" width="90" height="85" as="geometry"/>
                </mxCell>
                <mxCell id="11" value="Image" style="rounded=0;whiteSpace=wrap;html=1;" parent="1" vertex="1">
                    <mxGeometry x="510" y="392.5" width="90" height="85" as="geometry"/>
                </mxCell>
                <mxCell id="12" value="Image" style="rounded=0;whiteSpace=wrap;html=1;" parent="1" vertex="1">
                    <mxGeometry x="660" y="392.5" width="90" height="85" as="geometry"/>
                </mxCell>
                <mxCell id="13" value="Top five" style="rounded=1;whiteSpace=wrap;html=1;" parent="1" vertex="1">
                    <mxGeometry x="184" y="340" width="460" height="20" as="geometry"/>
                </mxCell>
                <mxCell id="15" value="" style="rounded=0;whiteSpace=wrap;html=1;" parent="1" vertex="1">
                    <mxGeometry x="40" y="860" width="740" height="210" as="geometry"/>
                </mxCell>
                <mxCell id="16" value="" style="rounded=0;whiteSpace=wrap;html=1;" parent="1" vertex="1">
                    <mxGeometry x="50" y="585" width="740" height="210" as="geometry"/>
                </mxCell>
                <mxCell id="17" value="other items of dog" style="rounded=1;whiteSpace=wrap;html=1;" parent="1" vertex="1">
                    <mxGeometry x="70" y="890" width="460" height="20" as="geometry"/>
                </mxCell>
                <mxCell id="18" value="other items of cat" style="rounded=1;whiteSpace=wrap;html=1;" parent="1" vertex="1">
                    <mxGeometry x="80" y="610" width="460" height="20" as="geometry"/>
                </mxCell>
                <mxCell id="19" value="search bar" style="rounded=0;whiteSpace=wrap;html=1;" parent="1" vertex="1">
                    <mxGeometry x="40" y="160" width="250" height="30" as="geometry"/>
                </mxCell>
                <mxCell id="20" value="Contact Us" style="rounded=0;whiteSpace=wrap;html=1;" parent="1" vertex="1">
                    <mxGeometry x="40" y="1100" width="740" height="60" as="geometry"/>
                </mxCell>
                <mxCell id="22" value="Shopping cart icon&lt;br&gt;(position absolute)" style="ellipse;whiteSpace=wrap;html=1;aspect=fixed;" parent="1" vertex="1">
                    <mxGeometry x="757" y="1030" width="70" height="70" as="geometry"/>
                </mxCell>
                <mxCell id="24" value="Login/User" style="rounded=0;whiteSpace=wrap;html=1;" parent="1" vertex="1">
                    <mxGeometry x="610" y="60" width="200" height="130" as="geometry"/>
                </mxCell>
                <mxCell id="25" value="Image" style="rounded=0;whiteSpace=wrap;html=1;" parent="1" vertex="1">
                    <mxGeometry x="70" y="392.5" width="90" height="85" as="geometry"/>
                </mxCell>
                <mxCell id="26" value="Image" style="rounded=0;whiteSpace=wrap;html=1;" parent="1" vertex="1">
                    <mxGeometry x="230" y="392.5" width="90" height="85" as="geometry"/>
                </mxCell>
                <mxCell id="27" value="Image" style="rounded=0;whiteSpace=wrap;html=1;" parent="1" vertex="1">
                    <mxGeometry x="369" y="392.5" width="90" height="85" as="geometry"/>
                </mxCell>
                <mxCell id="28" value="Image" style="rounded=0;whiteSpace=wrap;html=1;" parent="1" vertex="1">
                    <mxGeometry x="80" y="660" width="90" height="85" as="geometry"/>
                </mxCell>
                <mxCell id="29" value="Image" style="rounded=0;whiteSpace=wrap;html=1;" parent="1" vertex="1">
                    <mxGeometry x="240" y="660" width="90" height="85" as="geometry"/>
                </mxCell>
                <mxCell id="30" value="Image" style="rounded=0;whiteSpace=wrap;html=1;" parent="1" vertex="1">
                    <mxGeometry x="379" y="660" width="90" height="85" as="geometry"/>
                </mxCell>
                <mxCell id="31" value="Image" style="rounded=0;whiteSpace=wrap;html=1;" parent="1" vertex="1">
                    <mxGeometry x="670" y="660" width="90" height="85" as="geometry"/>
                </mxCell>
                <mxCell id="32" value="Image" style="rounded=0;whiteSpace=wrap;html=1;" parent="1" vertex="1">
                    <mxGeometry x="520" y="660" width="90" height="85" as="geometry"/>
                </mxCell>
                <mxCell id="33" value="Image" style="rounded=0;whiteSpace=wrap;html=1;" parent="1" vertex="1">
                    <mxGeometry x="60" y="940" width="90" height="85" as="geometry"/>
                </mxCell>
                <mxCell id="34" value="Image" style="rounded=0;whiteSpace=wrap;html=1;" parent="1" vertex="1">
                    <mxGeometry x="220" y="940" width="90" height="85" as="geometry"/>
                </mxCell>
                <mxCell id="35" value="Image" style="rounded=0;whiteSpace=wrap;html=1;" parent="1" vertex="1">
                    <mxGeometry x="359" y="940" width="90" height="85" as="geometry"/>
                </mxCell>
                <mxCell id="36" value="Image" style="rounded=0;whiteSpace=wrap;html=1;" parent="1" vertex="1">
                    <mxGeometry x="650" y="940" width="90" height="85" as="geometry"/>
                </mxCell>
                <mxCell id="37" value="Image" style="rounded=0;whiteSpace=wrap;html=1;" parent="1" vertex="1">
                    <mxGeometry x="500" y="940" width="90" height="85" as="geometry"/>
                </mxCell>
                <mxCell id="S-3GhnW7yeSZ2OPFbhYJ-37" value="sorting by price" style="rounded=0;whiteSpace=wrap;html=1;" parent="1" vertex="1">
                    <mxGeometry x="580" y="610" width="180" height="30" as="geometry"/>
                </mxCell>
                <mxCell id="S-3GhnW7yeSZ2OPFbhYJ-38" value="sorting by price" style="rounded=0;whiteSpace=wrap;html=1;" parent="1" vertex="1">
                    <mxGeometry x="577" y="890" width="180" height="30" as="geometry"/>
                </mxCell>
                <mxCell id="40" value="" style="whiteSpace=wrap;html=1;" parent="1" vertex="1">
                    <mxGeometry x="-70" y="-60" width="120" height="60" as="geometry"/>
                </mxCell>
            </root>
        </mxGraphModel>
    </diagram>
    <diagram id="rjR3k7niPq524UE1-Kn3" name="Searched page">
        <mxGraphModel dx="487" dy="361" grid="1" gridSize="10" guides="1" tooltips="1" connect="1" arrows="1" fold="1" page="1" pageScale="1" pageWidth="827" pageHeight="1169" math="0" shadow="0">
            <root>
                <mxCell id="gCGlrxJmcWFoP0tbSC3i-0"/>
                <mxCell id="gCGlrxJmcWFoP0tbSC3i-1" parent="gCGlrxJmcWFoP0tbSC3i-0"/>
                <mxCell id="I0DaGC4Si2iXjAUVL1Mm-0" value="Logo" style="rounded=0;whiteSpace=wrap;html=1;" parent="gCGlrxJmcWFoP0tbSC3i-1" vertex="1">
                    <mxGeometry x="40" y="60" width="120" height="60" as="geometry"/>
                </mxCell>
                <mxCell id="I0DaGC4Si2iXjAUVL1Mm-1" value="navbar (country, brand, catergory, contact)" style="rounded=0;whiteSpace=wrap;html=1;" parent="gCGlrxJmcWFoP0tbSC3i-1" vertex="1">
                    <mxGeometry x="50" y="240" width="750" height="60" as="geometry"/>
                </mxCell>
                <mxCell id="I0DaGC4Si2iXjAUVL1Mm-10" value="" style="rounded=0;whiteSpace=wrap;html=1;" parent="gCGlrxJmcWFoP0tbSC3i-1" vertex="1">
                    <mxGeometry x="50" y="360" width="740" height="570" as="geometry"/>
                </mxCell>
                <mxCell id="I0DaGC4Si2iXjAUVL1Mm-12" value="other items of cat" style="rounded=1;whiteSpace=wrap;html=1;" parent="gCGlrxJmcWFoP0tbSC3i-1" vertex="1">
                    <mxGeometry x="70" y="470" width="460" height="20" as="geometry"/>
                </mxCell>
                <mxCell id="I0DaGC4Si2iXjAUVL1Mm-13" value="search bar" style="rounded=0;whiteSpace=wrap;html=1;" parent="gCGlrxJmcWFoP0tbSC3i-1" vertex="1">
                    <mxGeometry x="40" y="160" width="250" height="30" as="geometry"/>
                </mxCell>
                <mxCell id="I0DaGC4Si2iXjAUVL1Mm-14" value="Contact Us" style="rounded=0;whiteSpace=wrap;html=1;" parent="gCGlrxJmcWFoP0tbSC3i-1" vertex="1">
                    <mxGeometry x="44" y="1070" width="740" height="60" as="geometry"/>
                </mxCell>
                <mxCell id="I0DaGC4Si2iXjAUVL1Mm-15" value="Login/User" style="rounded=0;whiteSpace=wrap;html=1;" parent="gCGlrxJmcWFoP0tbSC3i-1" vertex="1">
                    <mxGeometry x="610" y="60" width="200" height="130" as="geometry"/>
                </mxCell>
                <mxCell id="I0DaGC4Si2iXjAUVL1Mm-19" value="Image" style="rounded=0;whiteSpace=wrap;html=1;" parent="gCGlrxJmcWFoP0tbSC3i-1" vertex="1">
                    <mxGeometry x="70" y="520" width="90" height="85" as="geometry"/>
                </mxCell>
                <mxCell id="I0DaGC4Si2iXjAUVL1Mm-20" value="Image" style="rounded=0;whiteSpace=wrap;html=1;" parent="gCGlrxJmcWFoP0tbSC3i-1" vertex="1">
                    <mxGeometry x="230" y="520" width="90" height="85" as="geometry"/>
                </mxCell>
                <mxCell id="I0DaGC4Si2iXjAUVL1Mm-21" value="Image" style="rounded=0;whiteSpace=wrap;html=1;" parent="gCGlrxJmcWFoP0tbSC3i-1" vertex="1">
                    <mxGeometry x="369" y="520" width="90" height="85" as="geometry"/>
                </mxCell>
                <mxCell id="I0DaGC4Si2iXjAUVL1Mm-22" value="Image" style="rounded=0;whiteSpace=wrap;html=1;" parent="gCGlrxJmcWFoP0tbSC3i-1" vertex="1">
                    <mxGeometry x="660" y="520" width="90" height="85" as="geometry"/>
                </mxCell>
                <mxCell id="I0DaGC4Si2iXjAUVL1Mm-23" value="Image" style="rounded=0;whiteSpace=wrap;html=1;" parent="gCGlrxJmcWFoP0tbSC3i-1" vertex="1">
                    <mxGeometry x="510" y="520" width="90" height="85" as="geometry"/>
                </mxCell>
                <mxCell id="I0DaGC4Si2iXjAUVL1Mm-29" value="sorting by price" style="rounded=0;whiteSpace=wrap;html=1;" parent="gCGlrxJmcWFoP0tbSC3i-1" vertex="1">
                    <mxGeometry x="590" y="430" width="180" height="30" as="geometry"/>
                </mxCell>
                <mxCell id="fDvVp9o0CRkHQlYMpVdi-0" value="Shopping cart icon&lt;br&gt;(position absolute)" style="ellipse;whiteSpace=wrap;html=1;aspect=fixed;" parent="gCGlrxJmcWFoP0tbSC3i-1" vertex="1">
                    <mxGeometry x="757" y="1030" width="70" height="70" as="geometry"/>
                </mxCell>
                <mxCell id="fDvVp9o0CRkHQlYMpVdi-1" value="searched items name" style="rounded=1;whiteSpace=wrap;html=1;" parent="gCGlrxJmcWFoP0tbSC3i-1" vertex="1">
                    <mxGeometry x="70" y="430" width="480" height="60" as="geometry"/>
                </mxCell>
                <mxCell id="fDvVp9o0CRkHQlYMpVdi-2" value="Image" style="rounded=0;whiteSpace=wrap;html=1;" parent="gCGlrxJmcWFoP0tbSC3i-1" vertex="1">
                    <mxGeometry x="70" y="520" width="90" height="85" as="geometry"/>
                </mxCell>
                <mxCell id="fDvVp9o0CRkHQlYMpVdi-3" value="Image" style="rounded=0;whiteSpace=wrap;html=1;" parent="gCGlrxJmcWFoP0tbSC3i-1" vertex="1">
                    <mxGeometry x="70" y="520" width="90" height="85" as="geometry"/>
                </mxCell>
                <mxCell id="fDvVp9o0CRkHQlYMpVdi-4" value="Image" style="rounded=0;whiteSpace=wrap;html=1;" parent="gCGlrxJmcWFoP0tbSC3i-1" vertex="1">
                    <mxGeometry x="230" y="520" width="90" height="85" as="geometry"/>
                </mxCell>
                <mxCell id="fDvVp9o0CRkHQlYMpVdi-5" value="Image" style="rounded=0;whiteSpace=wrap;html=1;" parent="gCGlrxJmcWFoP0tbSC3i-1" vertex="1">
                    <mxGeometry x="70" y="520" width="90" height="85" as="geometry"/>
                </mxCell>
                <mxCell id="fDvVp9o0CRkHQlYMpVdi-6" value="Image" style="rounded=0;whiteSpace=wrap;html=1;" parent="gCGlrxJmcWFoP0tbSC3i-1" vertex="1">
                    <mxGeometry x="230" y="520" width="90" height="85" as="geometry"/>
                </mxCell>
                <mxCell id="fDvVp9o0CRkHQlYMpVdi-7" value="Image" style="rounded=0;whiteSpace=wrap;html=1;" parent="gCGlrxJmcWFoP0tbSC3i-1" vertex="1">
                    <mxGeometry x="510" y="520" width="90" height="85" as="geometry"/>
                </mxCell>
                <mxCell id="fDvVp9o0CRkHQlYMpVdi-8" value="Image" style="rounded=0;whiteSpace=wrap;html=1;" parent="gCGlrxJmcWFoP0tbSC3i-1" vertex="1">
                    <mxGeometry x="70" y="640" width="90" height="85" as="geometry"/>
                </mxCell>
                <mxCell id="fDvVp9o0CRkHQlYMpVdi-9" value="Image" style="rounded=0;whiteSpace=wrap;html=1;" parent="gCGlrxJmcWFoP0tbSC3i-1" vertex="1">
                    <mxGeometry x="230" y="640" width="90" height="85" as="geometry"/>
                </mxCell>
                <mxCell id="fDvVp9o0CRkHQlYMpVdi-10" value="Image" style="rounded=0;whiteSpace=wrap;html=1;" parent="gCGlrxJmcWFoP0tbSC3i-1" vertex="1">
                    <mxGeometry x="510" y="640" width="90" height="85" as="geometry"/>
                </mxCell>
                <mxCell id="fDvVp9o0CRkHQlYMpVdi-11" value="Image" style="rounded=0;whiteSpace=wrap;html=1;" parent="gCGlrxJmcWFoP0tbSC3i-1" vertex="1">
                    <mxGeometry x="369" y="640" width="90" height="85" as="geometry"/>
                </mxCell>
                <mxCell id="fDvVp9o0CRkHQlYMpVdi-12" value="Image" style="rounded=0;whiteSpace=wrap;html=1;" parent="gCGlrxJmcWFoP0tbSC3i-1" vertex="1">
                    <mxGeometry x="660" y="640" width="90" height="85" as="geometry"/>
                </mxCell>
                <mxCell id="fDvVp9o0CRkHQlYMpVdi-13" value="Image" style="rounded=0;whiteSpace=wrap;html=1;" parent="gCGlrxJmcWFoP0tbSC3i-1" vertex="1">
                    <mxGeometry x="74" y="760" width="90" height="85" as="geometry"/>
                </mxCell>
                <mxCell id="fDvVp9o0CRkHQlYMpVdi-14" value="Image" style="rounded=0;whiteSpace=wrap;html=1;" parent="gCGlrxJmcWFoP0tbSC3i-1" vertex="1">
                    <mxGeometry x="234" y="760" width="90" height="85" as="geometry"/>
                </mxCell>
                <mxCell id="fDvVp9o0CRkHQlYMpVdi-15" value="Image" style="rounded=0;whiteSpace=wrap;html=1;" parent="gCGlrxJmcWFoP0tbSC3i-1" vertex="1">
                    <mxGeometry x="514" y="760" width="90" height="85" as="geometry"/>
                </mxCell>
                <mxCell id="fDvVp9o0CRkHQlYMpVdi-16" value="Image" style="rounded=0;whiteSpace=wrap;html=1;" parent="gCGlrxJmcWFoP0tbSC3i-1" vertex="1">
                    <mxGeometry x="373" y="760" width="90" height="85" as="geometry"/>
                </mxCell>
                <mxCell id="fDvVp9o0CRkHQlYMpVdi-17" value="Image" style="rounded=0;whiteSpace=wrap;html=1;" parent="gCGlrxJmcWFoP0tbSC3i-1" vertex="1">
                    <mxGeometry x="664" y="760" width="90" height="85" as="geometry"/>
                </mxCell>
            </root>
        </mxGraphModel>
    </diagram>
    <diagram id="ra_WHCHmQwfCSAITm97_" name="Product details">
        <mxGraphModel dx="487" dy="361" grid="1" gridSize="10" guides="1" tooltips="1" connect="1" arrows="1" fold="1" page="1" pageScale="1" pageWidth="827" pageHeight="1169" math="0" shadow="0">
            <root>
                <mxCell id="vp_nuG7uNZeTbgervsUx-0"/>
                <mxCell id="vp_nuG7uNZeTbgervsUx-1" parent="vp_nuG7uNZeTbgervsUx-0"/>
                <mxCell id="HUXTOCx1YaPAG4ygqV5Y-0" value="Logo" style="rounded=0;whiteSpace=wrap;html=1;" parent="vp_nuG7uNZeTbgervsUx-1" vertex="1">
                    <mxGeometry x="40" y="60" width="120" height="60" as="geometry"/>
                </mxCell>
                <mxCell id="HUXTOCx1YaPAG4ygqV5Y-1" value="navbar (country, brand, catergory, contact)" style="rounded=0;whiteSpace=wrap;html=1;" parent="vp_nuG7uNZeTbgervsUx-1" vertex="1">
                    <mxGeometry x="50" y="240" width="730" height="60" as="geometry"/>
                </mxCell>
                <mxCell id="HUXTOCx1YaPAG4ygqV5Y-2" value="" style="rounded=0;whiteSpace=wrap;html=1;" parent="vp_nuG7uNZeTbgervsUx-1" vertex="1">
                    <mxGeometry x="50" y="320" width="750" height="690" as="geometry"/>
                </mxCell>
                <mxCell id="HUXTOCx1YaPAG4ygqV5Y-4" value="" style="rounded=0;whiteSpace=wrap;html=1;" parent="vp_nuG7uNZeTbgervsUx-1" vertex="1">
                    <mxGeometry x="470" y="412.5" width="280" height="317.5" as="geometry"/>
                </mxCell>
                <mxCell id="HUXTOCx1YaPAG4ygqV5Y-5" value="product name" style="rounded=0;whiteSpace=wrap;html=1;" parent="vp_nuG7uNZeTbgervsUx-1" vertex="1">
                    <mxGeometry x="80" y="350" width="580" height="30" as="geometry"/>
                </mxCell>
                <mxCell id="HUXTOCx1YaPAG4ygqV5Y-13" value="search bar" style="rounded=0;whiteSpace=wrap;html=1;" parent="vp_nuG7uNZeTbgervsUx-1" vertex="1">
                    <mxGeometry x="40" y="160" width="250" height="30" as="geometry"/>
                </mxCell>
                <mxCell id="HUXTOCx1YaPAG4ygqV5Y-14" value="Contact Us" style="rounded=0;whiteSpace=wrap;html=1;" parent="vp_nuG7uNZeTbgervsUx-1" vertex="1">
                    <mxGeometry x="50" y="1080" width="740" height="60" as="geometry"/>
                </mxCell>
                <mxCell id="HUXTOCx1YaPAG4ygqV5Y-15" value="Shopping cart icon&lt;br&gt;(position absolute)" style="ellipse;whiteSpace=wrap;html=1;aspect=fixed;" parent="vp_nuG7uNZeTbgervsUx-1" vertex="1">
                    <mxGeometry x="757" y="1020" width="70" height="70" as="geometry"/>
                </mxCell>
                <mxCell id="HUXTOCx1YaPAG4ygqV5Y-16" value="Login/User" style="rounded=0;whiteSpace=wrap;html=1;" parent="vp_nuG7uNZeTbgervsUx-1" vertex="1">
                    <mxGeometry x="610" y="60" width="200" height="130" as="geometry"/>
                </mxCell>
                <mxCell id="HUXTOCx1YaPAG4ygqV5Y-17" value="Image" style="rounded=0;whiteSpace=wrap;html=1;" parent="vp_nuG7uNZeTbgervsUx-1" vertex="1">
                    <mxGeometry x="80" y="412.5" width="320" height="317.5" as="geometry"/>
                </mxCell>
                <mxCell id="h4ej8yGqBTPAU6w98Tlu-0" value="price" style="rounded=0;whiteSpace=wrap;html=1;" parent="vp_nuG7uNZeTbgervsUx-1" vertex="1">
                    <mxGeometry x="505" y="430" width="210" height="60" as="geometry"/>
                </mxCell>
                <mxCell id="h4ej8yGqBTPAU6w98Tlu-1" value="product description" style="rounded=0;whiteSpace=wrap;html=1;" parent="vp_nuG7uNZeTbgervsUx-1" vertex="1">
                    <mxGeometry x="510" y="520" width="210" height="35" as="geometry"/>
                </mxCell>
                <mxCell id="h4ej8yGqBTPAU6w98Tlu-2" value="country origin" style="rounded=0;whiteSpace=wrap;html=1;" parent="vp_nuG7uNZeTbgervsUx-1" vertex="1">
                    <mxGeometry x="510" y="570" width="210" height="30" as="geometry"/>
                </mxCell>
                <mxCell id="h4ej8yGqBTPAU6w98Tlu-3" value="weight" style="rounded=0;whiteSpace=wrap;html=1;" parent="vp_nuG7uNZeTbgervsUx-1" vertex="1">
                    <mxGeometry x="510" y="615" width="210" height="20" as="geometry"/>
                </mxCell>
                <mxCell id="h4ej8yGqBTPAU6w98Tlu-5" value="add to shopping cart( handling&amp;nbsp;" style="rounded=0;whiteSpace=wrap;html=1;" parent="vp_nuG7uNZeTbgervsUx-1" vertex="1">
                    <mxGeometry x="505" y="660" width="230" height="50" as="geometry"/>
                </mxCell>
                <mxCell id="h4ej8yGqBTPAU6w98Tlu-8" value="" style="rounded=0;whiteSpace=wrap;html=1;" parent="vp_nuG7uNZeTbgervsUx-1" vertex="1">
                    <mxGeometry x="105" y="770" width="615" height="220" as="geometry"/>
                </mxCell>
                <mxCell id="h4ej8yGqBTPAU6w98Tlu-9" value="existing comment" style="rounded=0;whiteSpace=wrap;html=1;" parent="vp_nuG7uNZeTbgervsUx-1" vertex="1">
                    <mxGeometry x="130" y="790" width="550" height="120" as="geometry"/>
                </mxCell>
                <mxCell id="h4ej8yGqBTPAU6w98Tlu-10" value="user's new comment" style="rounded=0;whiteSpace=wrap;html=1;" parent="vp_nuG7uNZeTbgervsUx-1" vertex="1">
                    <mxGeometry x="130" y="930" width="560" height="40" as="geometry"/>
                </mxCell>
            </root>
        </mxGraphModel>
    </diagram>
    <diagram id="rPu-idlqBuN6Cx5OnRly" name="Cashier page">
        <mxGraphModel dx="487" dy="1530" grid="1" gridSize="10" guides="1" tooltips="1" connect="1" arrows="1" fold="1" page="1" pageScale="1" pageWidth="827" pageHeight="1169" math="0" shadow="0">
            <root>
                <mxCell id="E5G6unmzRsAMpZl32cMM-0"/>
                <mxCell id="E5G6unmzRsAMpZl32cMM-1" parent="E5G6unmzRsAMpZl32cMM-0"/>
                <mxCell id="j0C1E3JaZk5yovmC02cY-0" value="Logo" style="rounded=0;whiteSpace=wrap;html=1;" parent="E5G6unmzRsAMpZl32cMM-1" vertex="1">
                    <mxGeometry x="340" y="40" width="120" height="60" as="geometry"/>
                </mxCell>
                <mxCell id="j0C1E3JaZk5yovmC02cY-2" value="" style="rounded=0;whiteSpace=wrap;html=1;" parent="E5G6unmzRsAMpZl32cMM-1" vertex="1">
                    <mxGeometry x="40" y="130" width="760" height="860" as="geometry"/>
                </mxCell>
                <mxCell id="j0C1E3JaZk5yovmC02cY-3" value="Product 1 information" style="rounded=0;whiteSpace=wrap;html=1;" parent="E5G6unmzRsAMpZl32cMM-1" vertex="1">
                    <mxGeometry x="75" y="170" width="690" height="140" as="geometry"/>
                </mxCell>
                <mxCell id="j0C1E3JaZk5yovmC02cY-4" value="Price" style="rounded=0;whiteSpace=wrap;html=1;" parent="E5G6unmzRsAMpZl32cMM-1" vertex="1">
                    <mxGeometry x="605" y="330" width="160" height="30" as="geometry"/>
                </mxCell>
                <mxCell id="j0C1E3JaZk5yovmC02cY-5" value="Product 2 information" style="rounded=0;whiteSpace=wrap;html=1;" parent="E5G6unmzRsAMpZl32cMM-1" vertex="1">
                    <mxGeometry x="75" y="370" width="690" height="140" as="geometry"/>
                </mxCell>
                <mxCell id="j0C1E3JaZk5yovmC02cY-6" value="Price" style="rounded=0;whiteSpace=wrap;html=1;" parent="E5G6unmzRsAMpZl32cMM-1" vertex="1">
                    <mxGeometry x="605" y="530" width="160" height="30" as="geometry"/>
                </mxCell>
                <mxCell id="j0C1E3JaZk5yovmC02cY-7" value="Product 3 information" style="rounded=0;whiteSpace=wrap;html=1;" parent="E5G6unmzRsAMpZl32cMM-1" vertex="1">
                    <mxGeometry x="75" y="600" width="690" height="140" as="geometry"/>
                </mxCell>
                <mxCell id="j0C1E3JaZk5yovmC02cY-8" value="Price" style="rounded=0;whiteSpace=wrap;html=1;" parent="E5G6unmzRsAMpZl32cMM-1" vertex="1">
                    <mxGeometry x="605" y="760" width="160" height="30" as="geometry"/>
                </mxCell>
                <mxCell id="j0C1E3JaZk5yovmC02cY-10" value="Total Price" style="rounded=0;whiteSpace=wrap;html=1;" parent="E5G6unmzRsAMpZl32cMM-1" vertex="1">
                    <mxGeometry x="80" y="-60" width="685" height="80" as="geometry"/>
                </mxCell>
                <mxCell id="j0C1E3JaZk5yovmC02cY-12" value="Payment" style="ellipse;whiteSpace=wrap;html=1;aspect=fixed;" parent="E5G6unmzRsAMpZl32cMM-1" vertex="1">
                    <mxGeometry x="715" y="930" width="50" height="50" as="geometry"/>
                </mxCell>
                <mxCell id="fgLuDwrW08DQJRYx77I9-0" value="Contact Us" style="rounded=0;whiteSpace=wrap;html=1;" parent="E5G6unmzRsAMpZl32cMM-1" vertex="1">
                    <mxGeometry x="44" y="1080" width="740" height="60" as="geometry"/>
                </mxCell>
            </root>
        </mxGraphModel>
    </diagram>
    <diagram id="1gzC90UL5AAX9QLKe5gJ" name="Login page">
        <mxGraphModel dx="487" dy="361" grid="1" gridSize="10" guides="1" tooltips="1" connect="1" arrows="1" fold="1" page="1" pageScale="1" pageWidth="827" pageHeight="1169" math="0" shadow="0">
            <root>
                <mxCell id="AkiRJimbl_JENgy-9mRk-0"/>
                <mxCell id="AkiRJimbl_JENgy-9mRk-1" parent="AkiRJimbl_JENgy-9mRk-0"/>
                <mxCell id="BSLejYqWRmwct3U-X3JM-0" value="Logo" style="rounded=0;whiteSpace=wrap;html=1;" parent="AkiRJimbl_JENgy-9mRk-1" vertex="1">
                    <mxGeometry x="40" y="60" width="120" height="60" as="geometry"/>
                </mxCell>
                <mxCell id="BSLejYqWRmwct3U-X3JM-1" value="" style="rounded=0;whiteSpace=wrap;html=1;" parent="AkiRJimbl_JENgy-9mRk-1" vertex="1">
                    <mxGeometry x="69" y="200" width="690" height="690" as="geometry"/>
                </mxCell>
                <mxCell id="BSLejYqWRmwct3U-X3JM-2" value="Login username" style="rounded=0;whiteSpace=wrap;html=1;" parent="AkiRJimbl_JENgy-9mRk-1" vertex="1">
                    <mxGeometry x="234" y="390" width="360" height="60" as="geometry"/>
                </mxCell>
                <mxCell id="BSLejYqWRmwct3U-X3JM-3" value="password" style="rounded=0;whiteSpace=wrap;html=1;" parent="AkiRJimbl_JENgy-9mRk-1" vertex="1">
                    <mxGeometry x="230" y="480" width="360" height="60" as="geometry"/>
                </mxCell>
                <mxCell id="BSLejYqWRmwct3U-X3JM-4" value="Logo" style="rounded=0;whiteSpace=wrap;html=1;" parent="AkiRJimbl_JENgy-9mRk-1" vertex="1">
                    <mxGeometry x="315" y="250" width="180" height="90" as="geometry"/>
                </mxCell>
                <mxCell id="BSLejYqWRmwct3U-X3JM-5" value="Google Login" style="rounded=0;whiteSpace=wrap;html=1;" parent="AkiRJimbl_JENgy-9mRk-1" vertex="1">
                    <mxGeometry x="240" y="790" width="120" height="30" as="geometry"/>
                </mxCell>
                <mxCell id="BSLejYqWRmwct3U-X3JM-7" value="Facebook Login" style="rounded=0;whiteSpace=wrap;html=1;" parent="AkiRJimbl_JENgy-9mRk-1" vertex="1">
                    <mxGeometry x="470" y="790" width="120" height="30" as="geometry"/>
                </mxCell>
                <mxCell id="sQOL1ScB78vWfbALGyHe-0" value="Contact Us" style="rounded=0;whiteSpace=wrap;html=1;" parent="AkiRJimbl_JENgy-9mRk-1" vertex="1">
                    <mxGeometry x="50" y="1080" width="740" height="60" as="geometry"/>
                </mxCell>
                <mxCell id="sQOL1ScB78vWfbALGyHe-1" value="submit" style="rounded=0;whiteSpace=wrap;html=1;" parent="AkiRJimbl_JENgy-9mRk-1" vertex="1">
                    <mxGeometry x="259" y="590" width="310" height="30" as="geometry"/>
                </mxCell>
                <mxCell id="sQOL1ScB78vWfbALGyHe-3" value="OR&lt;br&gt;Register" style="rounded=0;whiteSpace=wrap;html=1;" parent="AkiRJimbl_JENgy-9mRk-1" vertex="1">
                    <mxGeometry x="269" y="650" width="290" height="100" as="geometry"/>
                </mxCell>
            </root>
        </mxGraphModel>
    </diagram>
    <diagram id="xFbc_x9IHO0t_nDvBLto" name="Register page">
        <mxGraphModel dx="487" dy="361" grid="1" gridSize="10" guides="1" tooltips="1" connect="1" arrows="1" fold="1" page="1" pageScale="1" pageWidth="827" pageHeight="1169" math="0" shadow="0">
            <root>
                <mxCell id="uQU1cGXejm0rY6JuJ3b--0"/>
                <mxCell id="uQU1cGXejm0rY6JuJ3b--1" parent="uQU1cGXejm0rY6JuJ3b--0"/>
                <mxCell id="YzCs3H4GwitQLR4cJSrf-0" value="Logo" style="rounded=0;whiteSpace=wrap;html=1;" parent="uQU1cGXejm0rY6JuJ3b--1" vertex="1">
                    <mxGeometry x="40" y="60" width="120" height="60" as="geometry"/>
                </mxCell>
                <mxCell id="YzCs3H4GwitQLR4cJSrf-1" value="" style="rounded=0;whiteSpace=wrap;html=1;" parent="uQU1cGXejm0rY6JuJ3b--1" vertex="1">
                    <mxGeometry x="69" y="200" width="690" height="690" as="geometry"/>
                </mxCell>
                <mxCell id="YzCs3H4GwitQLR4cJSrf-2" value="register username" style="rounded=0;whiteSpace=wrap;html=1;" parent="uQU1cGXejm0rY6JuJ3b--1" vertex="1">
                    <mxGeometry x="380" y="350" width="360" height="60" as="geometry"/>
                </mxCell>
                <mxCell id="YzCs3H4GwitQLR4cJSrf-3" value="password" style="rounded=0;whiteSpace=wrap;html=1;" parent="uQU1cGXejm0rY6JuJ3b--1" vertex="1">
                    <mxGeometry x="380" y="440" width="360" height="30" as="geometry"/>
                </mxCell>
                <mxCell id="YzCs3H4GwitQLR4cJSrf-4" value="User image" style="rounded=0;whiteSpace=wrap;html=1;" parent="uQU1cGXejm0rY6JuJ3b--1" vertex="1">
                    <mxGeometry x="110" y="310" width="180" height="180" as="geometry"/>
                </mxCell>
                <mxCell id="YzCs3H4GwitQLR4cJSrf-7" value="Contact Us" style="rounded=0;whiteSpace=wrap;html=1;" parent="uQU1cGXejm0rY6JuJ3b--1" vertex="1">
                    <mxGeometry x="50" y="1080" width="740" height="60" as="geometry"/>
                </mxCell>
                <mxCell id="YzCs3H4GwitQLR4cJSrf-8" value="submit" style="rounded=0;whiteSpace=wrap;html=1;" parent="uQU1cGXejm0rY6JuJ3b--1" vertex="1">
                    <mxGeometry x="410" y="770" width="110" height="30" as="geometry"/>
                </mxCell>
                <mxCell id="YzCs3H4GwitQLR4cJSrf-10" value="confirmed password" style="rounded=0;whiteSpace=wrap;html=1;" parent="uQU1cGXejm0rY6JuJ3b--1" vertex="1">
                    <mxGeometry x="390" y="500" width="360" height="30" as="geometry"/>
                </mxCell>
                <mxCell id="YzCs3H4GwitQLR4cJSrf-11" value="Date of Birth" style="rounded=0;whiteSpace=wrap;html=1;" parent="uQU1cGXejm0rY6JuJ3b--1" vertex="1">
                    <mxGeometry x="380" y="650" width="360" height="30" as="geometry"/>
                </mxCell>
                <mxCell id="YzCs3H4GwitQLR4cJSrf-12" value="Gender" style="rounded=0;whiteSpace=wrap;html=1;" parent="uQU1cGXejm0rY6JuJ3b--1" vertex="1">
                    <mxGeometry x="380" y="710" width="360" height="30" as="geometry"/>
                </mxCell>
                <mxCell id="4PGHEZnM94D3niJN3Ka--1" value="reset" style="rounded=0;whiteSpace=wrap;html=1;" parent="uQU1cGXejm0rY6JuJ3b--1" vertex="1">
                    <mxGeometry x="594" y="770" width="110" height="30" as="geometry"/>
                </mxCell>
                <mxCell id="4PGHEZnM94D3niJN3Ka--3" value="confirmed password" style="rounded=0;whiteSpace=wrap;html=1;" parent="uQU1cGXejm0rY6JuJ3b--1" vertex="1">
                    <mxGeometry x="374" y="570" width="360" height="30" as="geometry"/>
                </mxCell>
            </root>
        </mxGraphModel>
    </diagram>
    <diagram id="8_-DLbppZD3drn9ky867" name="Admin page (optional)">
        <mxGraphModel dx="487" dy="361" grid="1" gridSize="10" guides="1" tooltips="1" connect="1" arrows="1" fold="1" page="1" pageScale="1" pageWidth="827" pageHeight="1169" math="0" shadow="0">
            <root>
                <mxCell id="K4oPy3BHlfiLlfp8YJNH-0"/>
                <mxCell id="K4oPy3BHlfiLlfp8YJNH-1" parent="K4oPy3BHlfiLlfp8YJNH-0"/>
                <mxCell id="1bUhnKvd_5rvS5kt8NA0-0" value="Logo" style="rounded=0;whiteSpace=wrap;html=1;" parent="K4oPy3BHlfiLlfp8YJNH-1" vertex="1">
                    <mxGeometry x="50" y="70" width="120" height="60" as="geometry"/>
                </mxCell>
                <mxCell id="1bUhnKvd_5rvS5kt8NA0-1" value="" style="rounded=0;whiteSpace=wrap;html=1;" parent="K4oPy3BHlfiLlfp8YJNH-1" vertex="1">
                    <mxGeometry x="50" y="170" width="740" height="920" as="geometry"/>
                </mxCell>
                <mxCell id="1bUhnKvd_5rvS5kt8NA0-2" value="Today Revenue" style="rounded=0;whiteSpace=wrap;html=1;" parent="K4oPy3BHlfiLlfp8YJNH-1" vertex="1">
                    <mxGeometry x="180" y="210" width="210" height="120" as="geometry"/>
                </mxCell>
                <mxCell id="1bUhnKvd_5rvS5kt8NA0-3" value="Number of visit" style="rounded=0;whiteSpace=wrap;html=1;" parent="K4oPy3BHlfiLlfp8YJNH-1" vertex="1">
                    <mxGeometry x="470" y="210" width="210" height="120" as="geometry"/>
                </mxCell>
                <mxCell id="1bUhnKvd_5rvS5kt8NA0-4" value="" style="rounded=0;whiteSpace=wrap;html=1;" parent="K4oPy3BHlfiLlfp8YJNH-1" vertex="1">
                    <mxGeometry x="110" y="380" width="650" height="660" as="geometry"/>
                </mxCell>
                <mxCell id="1bUhnKvd_5rvS5kt8NA0-5" value="Satistic" style="rounded=0;whiteSpace=wrap;html=1;" parent="K4oPy3BHlfiLlfp8YJNH-1" vertex="1">
                    <mxGeometry x="139" y="420" width="550" height="60" as="geometry"/>
                </mxCell>
                <mxCell id="1bUhnKvd_5rvS5kt8NA0-6" value="age of user&lt;br&gt;" style="rounded=0;whiteSpace=wrap;html=1;" parent="K4oPy3BHlfiLlfp8YJNH-1" vertex="1">
                    <mxGeometry x="230" y="550" width="135" height="140" as="geometry"/>
                </mxCell>
                <mxCell id="1bUhnKvd_5rvS5kt8NA0-7" value="gender" style="rounded=0;whiteSpace=wrap;html=1;" parent="K4oPy3BHlfiLlfp8YJNH-1" vertex="1">
                    <mxGeometry x="480" y="550" width="135" height="140" as="geometry"/>
                </mxCell>
                <mxCell id="SPqMoKrDn9rUnNmQTst5-0" value="Top sales today" style="rounded=0;whiteSpace=wrap;html=1;" parent="K4oPy3BHlfiLlfp8YJNH-1" vertex="1">
                    <mxGeometry x="170" y="770" width="560" height="250" as="geometry"/>
                </mxCell>
                <mxCell id="AYqkY1opL5_msPPnGYsc-0" value="User Account (Admin)" style="rounded=0;whiteSpace=wrap;html=1;" parent="K4oPy3BHlfiLlfp8YJNH-1" vertex="1">
                    <mxGeometry x="615" y="20" width="200" height="130" as="geometry"/>
                </mxCell>
            </root>
        </mxGraphModel>
    </diagram>
</mxfile>